<?xml version="1.0" standalone="no"?><!DOCTYPE svg PUBLIC "-//W3C//DTD SVG 1.1//EN" "http://www.w3.org/Graphics/SVG/1.1/DTD/svg11.dtd"><svg t="1583918458524" class="icon" viewBox="0 0 1024 1024" version="1.1" xmlns="http://www.w3.org/2000/svg" p-id="3932" width="48" height="48" xmlns:xlink="http://www.w3.org/1999/xlink"><defs><style type="text/css"></style></defs><path d="M792 435.64c4-16 6.74-32.55 6.74-49.82 0-114-92.44-206.46-206.47-206.46-77.16 0-143.63 42.82-179.06 105.51a148.74 148.74 0 0 0-186.55 216.67c-90.24 5.31-162 79.47-162 171a172.06 172.06 0 0 0 172.06 172.09h516.16c114 0 206.46-92.44 206.46-206.47C959.33 537.55 887.3 454 792 435.64zM685.74 751.91H313.45a124.09 124.09 0 0 1-124.1-124.1c0-66 51.75-119.53 116.84-123.36a107.2 107.2 0 0 1 134.56-156.26c25.57-45.23 73.51-76.12 129.16-76.12A147.3 147.3 0 0 1 714 456.93c68.69 13.21 120.65 73.49 120.65 146.07a148.91 148.91 0 0 1-148.91 148.91z" fill="#C5E3FF" p-id="3933"></path><path d="M752.88 857.13H236.72c-101.72 0-184.55-82.79-184.55-184.56a182.52 182.52 0 0 1 50.61-126.49 184.36 184.36 0 0 1 103.64-54.85 160.26 160.26 0 0 1-16.6-71c0-89.12 72.5-161.62 161.61-161.62a158.53 158.53 0 0 1 56.65 10.55 222 222 0 0 1 72.58-71.26 218.63 218.63 0 0 1 330.6 187.92 200.45 200.45 0 0 1-4.26 40.36c96.27 24.45 164.86 111.62 164.86 212a219 219 0 0 1-219 219zM351.42 283.62c-75.32 0-136.61 61.29-136.61 136.62a135.87 135.87 0 0 0 22.31 74.47 12.5 12.5 0 0 1-9.73 19.29 159.62 159.62 0 0 0-106.52 49.32 157.63 157.63 0 0 0-43.7 109.24c0 88 71.57 159.56 159.55 159.56h516.16c106.95 0 194-87 194-194a194 194 0 0 0-157.23-190.2 12.5 12.5 0 0 1-9.77-15.3c4.35-17.43 6.37-32.3 6.37-46.8 0-106.95-87-194-194-194a190.87 190.87 0 0 0-98.71 27.45A197.22 197.22 0 0 0 424.11 291a12.5 12.5 0 0 1-16.11 5.25 135.32 135.32 0 0 0-56.58-12.63z m334.32 480.79H313.45c-75.32 0-136.6-61.28-136.6-136.6 0-65.49 46.84-120.83 109.66-133.4a119.86 119.86 0 0 1 109.66-168.65 117.37 117.37 0 0 1 39.44 6.86 163.59 163.59 0 0 1 52-50.15 159.18 159.18 0 0 1 82.33-22.9c89 0 161.42 72.41 161.42 161.42a145.22 145.22 0 0 1-2.54 26.58A161.49 161.49 0 0 1 847.15 603c0 89-72.41 161.41-161.41 161.41zM396.17 350.76a94.86 94.86 0 0 0-79.52 146.86 12.5 12.5 0 0 1-9.73 19.31C248 520.4 201.85 569.11 201.85 627.81a111.73 111.73 0 0 0 111.6 111.6h372.29c75.22 0 136.42-61.2 136.42-136.42a136.43 136.43 0 0 0-110.55-133.78 12.5 12.5 0 0 1-9.77-15.29c3.06-12.32 4.49-22.78 4.49-32.92 0-75.22-61.2-136.42-136.42-136.42a134.19 134.19 0 0 0-69.4 19.3 138.81 138.81 0 0 0-48.88 50.47 12.5 12.5 0 0 1-16.09 5.21 94 94 0 0 0-39.37-8.8z" fill="#3D9FF9" p-id="3934"></path><path d="M555.06 673.36a12.5 12.5 0 0 1-12.5-12.5V423.49a12.5 12.5 0 0 1 21.9-8.24l82.19 93.85a12.5 12.5 0 0 1-18.81 16.47l-60.29-68.84v204.13a12.5 12.5 0 0 1-12.49 12.5zM468.94 673.36a12.5 12.5 0 0 1-9.41-4.26l-82.19-93.85a12.5 12.5 0 0 1 18.81-16.47l60.29 68.84V423.49a12.5 12.5 0 0 1 25 0v237.37a12.5 12.5 0 0 1-12.5 12.5z" fill="#3D9FF9" p-id="3935"></path></svg>