<?xml version="1.0" standalone="no"?><!DOCTYPE svg PUBLIC "-//W3C//DTD SVG 1.1//EN" "http://www.w3.org/Graphics/SVG/1.1/DTD/svg11.dtd"><svg t="1583918499733" class="icon" viewBox="0 0 1321 1024" version="1.1" xmlns="http://www.w3.org/2000/svg" p-id="5676" width="61.921875" height="48" xmlns:xlink="http://www.w3.org/1999/xlink"><defs><style type="text/css"></style></defs><path d="M507.879883 1003.679484a69.458788 69.458788 0 0 1 0-98.249455l49.107363-49.107363-49.107363-49.107363a69.458788 69.458788 0 0 1 98.249456-98.249455l49.107363 49.142092 49.107363-49.142092a69.458788 69.458788 0 1 1 98.284185 98.249455l-49.142093 49.176822 49.142093 49.107363a69.458788 69.458788 0 0 1-98.284185 98.249455l-49.142093-49.142092-49.037904 49.107363a69.458788 69.458788 0 0 1-98.249455 0z m-263.283535-331.387876a88.177931 88.177931 0 0 1-30.527137-120.858291 567.478297 567.478297 0 0 1 389.802717-233.416257c119.78168-12.849876 302.458292 14.551616 493.157394 218.3437a88.177931 88.177931 0 0 1-128.776593 120.441538c-113.183095-120.962479-229.422376-175.93911-345.52274-163.505987a399.38803 399.38803 0 0 0-257.205891 148.43343 88.143202 88.143202 0 0 1-120.858291 30.527137z m927.274818-249.739072c-179.516237-171.285371-362.609602-253.87187-544.174874-245.571545-266.409181 12.294205-451.690497 216.468312-471.903004 239.632818A88.143202 88.143202 0 1 1 22.849168 300.86074C64.142417 253.420387 287.035667 16.079709 619.569614 0.798776c231.47141-10.661924 458.428 88.316849 674.028077 294.192696a88.143202 88.143202 0 1 1-121.761255 127.526334z" p-id="5677" fill="#d4237a"></path></svg>